<svg version="1.1" id="Layer_1" xmlns="http://www.w3.org/2000/svg" xmlns:xlink="http://www.w3.org/1999/xlink" x="0px" y="0px"
	 width="100%" viewBox="0 0 200 177" enable-background="new 0 0 200 177" xml:space="preserve">
<path fill="#0E0E0E" opacity="1.000000" stroke="none" 
	d="
M93.000000,178.000000 
	C62.000000,178.000000 31.500004,178.000000 1.000004,178.000000 
	C1.000003,119.000008 1.000003,60.000011 1.000001,1.000012 
	C67.666656,1.000008 134.333313,1.000008 200.999969,1.000004 
	C200.999985,59.999985 200.999985,118.999969 201.000000,177.999969 
	C165.166672,178.000000 129.333328,178.000000 93.000000,178.000000 
M172.151138,119.161102 
	C171.463455,119.188477 170.775772,119.215851 169.673721,118.696503 
	C167.630859,118.600540 165.587982,118.504585 163.407990,118.402191 
	C163.407990,119.621498 163.407990,120.532547 163.407990,121.556557 
	C161.803436,120.714958 160.395035,119.976234 158.308777,118.881973 
	C159.577911,121.699364 160.424377,123.578491 161.700958,126.412430 
	C164.166351,125.182312 166.630447,123.952843 168.989166,122.775955 
	C169.392395,124.021683 169.960800,125.777672 170.522263,127.512207 
	C172.205811,126.289482 173.833084,125.601585 174.649719,124.374298 
	C175.451035,123.170059 175.428116,121.417374 175.766922,119.905380 
	C174.789429,119.697517 173.811935,119.489647 172.151138,119.161102 
M71.083618,74.784241 
	C70.044807,69.449127 69.132339,64.083649 67.863632,58.803772 
	C67.600822,57.710087 66.014595,56.934410 65.038300,56.012173 
	C64.333344,57.143208 63.007835,58.289429 63.035080,59.402538 
	C63.132492,63.382500 63.891956,67.344398 64.025894,71.325737 
	C64.253288,78.084618 66.396645,83.782677 71.199768,88.782150 
	C75.587585,93.349327 80.794052,97.764099 79.653763,105.750740 
	C83.738579,105.750740 87.206993,105.892937 90.650681,105.663666 
	C91.677574,105.595299 93.423210,104.570625 93.501480,103.840637 
	C94.211136,97.222092 95.060921,90.554520 89.699890,85.049301 
	C85.655617,80.896248 81.986839,76.378304 77.961876,72.205109 
	C76.983337,71.190529 75.261093,70.893234 73.880821,70.266129 
	C73.434631,71.685234 72.988441,73.104340 72.095428,74.906769 
	C71.947159,75.035332 71.798897,75.163887 71.083618,74.784241 
M108.143364,90.948990 
	C108.143364,95.691551 108.143364,100.434120 108.143364,105.210953 
	C112.888153,105.210953 117.259468,105.210953 119.642822,105.210953 
	C122.677513,99.996368 124.828201,95.967682 127.297104,92.144493 
	C130.243393,87.582047 134.655426,83.582024 136.257767,78.634094 
	C138.212769,72.597061 138.023468,65.835739 138.463013,59.367374 
	C138.535873,58.295006 137.084549,57.119068 136.337570,55.990990 
	C135.374527,56.932533 133.811935,57.737350 133.560242,58.841114 
	C132.788010,62.227448 132.704010,65.767342 131.989822,69.171448 
	C131.492966,71.539665 130.398972,73.782608 129.355957,76.681274 
	C128.639603,73.792839 128.395020,72.044243 127.662849,70.531685 
	C127.525139,70.247223 124.951004,70.479752 124.333763,71.193619 
	C118.927849,77.445839 113.711029,83.861549 108.143364,90.948990 
M118.774292,63.329590 
	C123.175667,57.661537 123.111458,52.274555 118.595741,48.348755 
	C114.213921,44.539356 108.614105,45.038025 103.302353,50.635216 
	C105.673477,50.889786 107.472176,51.639107 108.736183,51.110313 
	C112.022575,49.735462 115.135269,49.966961 116.402168,53.113098 
	C117.165077,55.007656 116.430855,58.560104 114.998505,60.046318 
	C112.609718,62.524918 109.525467,61.404945 107.117104,59.005501 
	C103.583069,55.484543 100.145569,51.849735 96.417679,48.544579 
	C91.741089,44.398312 85.764091,44.886448 81.844299,49.415382 
	C78.215057,53.608627 78.545868,59.537868 82.618546,63.292389 
	C86.971062,67.304886 92.595604,66.925362 97.998848,61.311317 
	C95.633438,60.993210 93.904152,60.254036 92.535263,60.678131 
	C89.319870,61.674286 86.190201,61.883667 84.929848,58.469788 
	C84.245773,56.616859 84.810440,53.392899 86.102684,51.919472 
	C88.426926,49.269341 91.518669,50.085754 93.977470,52.491646 
	C97.185425,55.630554 100.325867,58.838402 103.528687,61.982632 
	C108.484337,66.847603 112.122482,67.293648 118.774292,63.329590 
M157.695465,123.643135 
	C157.194321,121.948410 156.693161,120.253685 156.201721,118.556068 
	C150.130295,121.559441 148.615341,122.526939 148.664337,123.333290 
	C150.554718,122.727142 152.464691,122.114723 154.038284,121.610146 
	C155.069305,123.322212 155.800629,124.536598 156.531952,125.750984 
	C157.077332,125.206169 157.622711,124.661354 157.695465,123.643135 
M32.199188,120.089333 
	C32.242683,119.844437 32.321495,119.597725 32.309021,119.355721 
	C32.305077,119.279129 31.942036,119.147179 31.937450,119.154961 
	C31.403702,120.060593 30.888292,120.977036 30.371883,121.892883 
	C30.702517,122.030846 31.033152,122.168808 31.363785,122.306770 
	C31.510626,121.725113 31.657465,121.143456 32.199188,120.089333 
M115.055779,120.469574 
	C114.812256,120.146828 114.568733,119.824089 114.325218,119.501343 
	C114.303749,120.227364 114.282280,120.953377 114.260811,121.679398 
	C114.653603,121.458549 115.046394,121.237709 115.055779,120.469574 
M152.578918,124.753792 
	C152.188965,124.753754 151.798599,124.747398 151.410477,124.774025 
	C151.392746,124.775246 151.395416,125.073708 151.388596,125.233727 
	C151.774979,125.234314 152.161346,125.234909 152.578918,124.753792 
z"/>
<path fill="#F4F4F4" opacity="1.000000" stroke="none" 
	d="
M108.290756,90.588882 
	C113.711029,83.861549 118.927849,77.445839 124.333763,71.193619 
	C124.951004,70.479752 127.525139,70.247223 127.662849,70.531685 
	C128.395020,72.044243 128.639603,73.792839 129.355957,76.681274 
	C130.398972,73.782608 131.492966,71.539665 131.989822,69.171448 
	C132.704010,65.767342 132.788010,62.227448 133.560242,58.841114 
	C133.811935,57.737350 135.374527,56.932533 136.337570,55.990990 
	C137.084549,57.119068 138.535873,58.295006 138.463013,59.367374 
	C138.023468,65.835739 138.212769,72.597061 136.257767,78.634094 
	C134.655426,83.582024 130.243393,87.582047 127.297104,92.144493 
	C124.828201,95.967682 122.677513,99.996368 119.642822,105.210953 
	C117.259468,105.210953 112.888153,105.210953 108.143364,105.210953 
	C108.143364,100.434120 108.143364,95.691551 108.290756,90.588882 
z"/>
<path fill="#F3F3F3" opacity="1.000000" stroke="none" 
	d="
M72.542252,74.523445 
	C72.988441,73.104340 73.434631,71.685234 73.880814,70.266129 
	C75.261093,70.893234 76.983337,71.190529 77.961876,72.205109 
	C81.986839,76.378304 85.655617,80.896248 89.699890,85.049301 
	C95.060921,90.554520 94.211136,97.222092 93.501480,103.840637 
	C93.423210,104.570625 91.677574,105.595299 90.650681,105.663666 
	C87.206993,105.892937 83.738579,105.750740 79.653763,105.750740 
	C80.794052,97.764099 75.587585,93.349327 71.199768,88.782150 
	C66.396645,83.782677 64.253288,78.084618 64.025894,71.325737 
	C63.891956,67.344398 63.132492,63.382500 63.035080,59.402538 
	C63.007835,58.289429 64.333344,57.143208 65.038300,56.012173 
	C66.014595,56.934410 67.600822,57.710087 67.863632,58.803772 
	C69.132339,64.083649 70.044807,69.449127 71.420998,75.330368 
	C72.090210,76.333481 72.422035,76.790466 72.874069,77.493301 
	C73.240036,77.332970 73.485794,76.926788 73.649963,76.236481 
	C73.226334,75.476059 72.884285,74.999748 72.542252,74.523445 
z"/>
<path fill="#EDEDED" opacity="1.000000" stroke="none" 
	d="
M118.488350,63.585701 
	C112.122482,67.293648 108.484337,66.847603 103.528687,61.982632 
	C100.325867,58.838402 97.185425,55.630554 93.977470,52.491646 
	C91.518669,50.085754 88.426926,49.269341 86.102684,51.919472 
	C84.810440,53.392899 84.245773,56.616859 84.929848,58.469788 
	C86.190201,61.883667 89.319870,61.674286 92.535263,60.678131 
	C93.904152,60.254036 95.633438,60.993210 97.998848,61.311317 
	C92.595604,66.925362 86.971062,67.304886 82.618546,63.292389 
	C78.545868,59.537868 78.215057,53.608627 81.844299,49.415382 
	C85.764091,44.886448 91.741089,44.398312 96.417679,48.544579 
	C100.145569,51.849735 103.583069,55.484543 107.117104,59.005501 
	C109.525467,61.404945 112.609718,62.524918 114.998505,60.046318 
	C116.430855,58.560104 117.165077,55.007656 116.402168,53.113098 
	C115.135269,49.966961 112.022575,49.735462 108.736183,51.110313 
	C107.472176,51.639107 105.673477,50.889786 103.302353,50.635216 
	C108.614105,45.038025 114.213921,44.539356 118.595741,48.348755 
	C123.111458,52.274555 123.175667,57.661537 118.488350,63.585701 
z"/>
<path fill="#1A1A1A" opacity="1.000000" stroke="none" 
	d="
M172.834442,119.281784 
	C173.811935,119.489647 174.789429,119.697517 175.766922,119.905380 
	C175.428116,121.417374 175.451035,123.170059 174.649719,124.374298 
	C173.833084,125.601585 172.205811,126.289482 170.522263,127.512207 
	C169.960800,125.777672 169.392395,124.021683 168.989166,122.775955 
	C166.630447,123.952843 164.166351,125.182312 161.700958,126.412430 
	C160.424377,123.578491 159.577911,121.699364 158.308777,118.881973 
	C160.395035,119.976234 161.803436,120.714958 163.407990,121.556557 
	C163.407990,120.532547 163.407990,119.621498 163.407990,118.402191 
	C165.587982,118.504585 167.630859,118.600540 169.857269,119.276199 
	C170.972031,119.664528 171.903244,119.473152 172.834442,119.281784 
z"/>
<path fill="#252525" opacity="1.000000" stroke="none" 
	d="
M157.931793,123.879837 
	C157.622711,124.661354 157.077332,125.206169 156.531952,125.750977 
	C155.800629,124.536598 155.069305,123.322212 154.038284,121.610146 
	C152.464691,122.114723 150.554718,122.727142 148.664337,123.333290 
	C148.615341,122.526939 150.130295,121.559441 156.196869,118.557510 
	C156.693161,120.253685 157.194321,121.948410 157.931793,123.879837 
z"/>
<path fill="#939393" opacity="1.000000" stroke="none" 
	d="
M32.001747,120.325562 
	C31.657465,121.143456 31.510626,121.725113 31.363785,122.306770 
	C31.033152,122.168808 30.702517,122.030846 30.371883,121.892883 
	C30.888292,120.977036 31.403702,120.060593 31.937450,119.154961 
	C31.942036,119.147179 32.305077,119.279129 32.309021,119.355721 
	C32.321495,119.597725 32.242683,119.844437 32.001747,120.325562 
z"/>
<path fill="#C5C5C5" opacity="1.000000" stroke="none" 
	d="
M115.247482,120.743225 
	C115.046394,121.237709 114.653603,121.458549 114.260818,121.679398 
	C114.282280,120.953377 114.303749,120.227364 114.325211,119.501343 
	C114.568733,119.824089 114.812256,120.146828 115.247482,120.743225 
z"/>
<path fill="#9F9F9F" opacity="1.000000" stroke="none" 
	d="
M172.492798,119.221436 
	C171.903244,119.473152 170.972031,119.664528 170.064453,119.549568 
	C170.775772,119.215851 171.463455,119.188477 172.492798,119.221436 
z"/>
<path fill="#252525" opacity="1.000000" stroke="none" 
	d="
M152.563324,124.994644 
	C152.161346,125.234909 151.774979,125.234314 151.388596,125.233727 
	C151.395416,125.073708 151.392746,124.775246 151.410477,124.774025 
	C151.798599,124.747398 152.188965,124.753754 152.563324,124.994644 
z"/>
<path fill="#0E0E0E" opacity="1.000000" stroke="none" 
	d="
M72.318832,74.715103 
	C72.884285,74.999748 73.226334,75.476059 73.394012,76.402695 
	C73.064384,76.984505 72.909126,77.115974 72.753860,77.247452 
	C72.422035,76.790466 72.090210,76.333481 71.704514,75.584473 
	C71.798897,75.163887 71.947159,75.035332 72.318832,74.715103 
z"/>
<path fill="#0E0E0E" opacity="1.000000" stroke="none" 
	d="
M73.475601,76.686813 
	C73.485794,76.926788 73.240036,77.332970 72.874069,77.493301 
	C72.909126,77.115974 73.064384,76.984505 73.475601,76.686813 
z"/>
</svg>